<svg version="1.1" id="Layer_1" xmlns="http://www.w3.org/2000/svg" xmlns:xlink="http://www.w3.org/1999/xlink" x="0px" y="0px"
	 width="100%" viewBox="0 0 200 254" enable-background="new 0 0 200 254" xml:space="preserve">
<path fill="#000000" opacity="1.000000" stroke="none" 
	d="
M201.000000,101.000000 
	C201.000000,152.666672 201.000000,203.833328 201.000000,255.000000 
	C134.333328,255.000000 67.666664,255.000000 1.000000,255.000000 
	C1.000000,170.333328 1.000000,85.666664 1.000000,1.000000 
	C67.666664,1.000000 134.333328,1.000000 201.000000,1.000000 
	C201.000000,34.166668 201.000000,67.333336 201.000000,101.000000 
M13.973379,207.912430 
	C14.028842,214.616196 14.084304,221.319946 14.010218,228.896912 
	C14.329000,231.628265 14.647780,234.359604 15.008124,237.929108 
	C14.771822,240.434998 15.361532,242.083771 18.416161,242.032761 
	C41.653046,241.644730 64.910805,241.796204 88.121933,240.822830 
	C103.931602,240.159851 118.721237,234.897812 132.406067,226.881134 
	C156.071701,213.017639 172.601532,193.173492 181.904205,167.351151 
	C187.986160,150.468857 189.896027,133.064682 186.766312,115.441719 
	C184.921234,105.052376 182.923111,94.302803 178.567307,84.831123 
	C170.620041,67.549805 158.939362,52.599033 143.452057,41.151539 
	C124.816093,27.376701 103.846519,19.815722 80.607872,19.071194 
	C71.786377,18.788568 62.948204,19.027109 54.117634,19.027370 
	C41.151093,19.027752 28.184549,19.027470 14.606760,19.027470 
	C14.606760,36.194832 14.606760,53.011284 14.606760,70.676773 
	C16.326691,69.756828 17.866003,69.092323 19.235004,68.173950 
	C25.405643,64.034454 31.622305,59.951107 37.602657,55.549019 
	C39.131298,54.423798 40.562065,52.299622 40.799854,50.473225 
	C41.247360,47.036072 42.445312,45.764633 46.051262,45.827431 
	C57.876915,46.033386 69.709793,45.793961 81.537376,45.935627 
	C85.776337,45.986404 90.113739,46.164841 94.225304,47.089485 
	C114.249016,51.592587 130.785095,62.191406 143.903992,77.701431 
	C153.575714,89.135994 159.669708,102.764618 160.904495,117.701012 
	C162.706772,139.501923 160.729233,160.606903 146.690170,179.144608 
	C141.052490,186.588806 134.982788,193.381516 127.572548,198.766541 
	C114.234024,208.459641 99.072662,214.074783 82.611801,214.979843 
	C69.988037,215.673904 57.292366,215.169159 44.633327,214.940109 
	C43.403572,214.917862 41.019127,212.484039 41.174519,212.174042 
	C43.173363,208.186356 39.803253,206.590256 37.696701,205.455490 
	C30.772551,201.725571 24.143412,197.716537 18.470488,192.182922 
	C17.543417,191.278610 15.736869,191.275909 14.160511,190.803680 
	C14.069760,192.028152 13.990946,192.516479 14.008008,193.001419 
	C14.031319,193.663986 14.127592,194.323990 14.019046,195.813736 
	C14.315951,197.887344 14.612858,199.960938 15.024457,202.807434 
	C15.008065,203.848480 14.991673,204.889542 14.444167,206.055328 
	C14.342599,206.365784 14.241032,206.676254 13.973379,207.912430 
M115.836029,81.601082 
	C92.562668,63.682598 65.448479,68.807159 39.314354,68.115753 
	C39.314354,77.089775 39.314354,85.352295 39.314354,94.002281 
	C47.700466,94.002281 55.828434,93.850410 63.947853,94.048744 
	C70.850815,94.217369 77.922112,93.951363 84.601456,95.371185 
	C95.874008,97.767395 104.288445,104.447884 109.224350,115.224846 
	C110.060982,117.051529 112.078682,119.496964 113.691368,119.607689 
	C120.649857,120.085403 127.669479,119.973755 134.643555,119.618835 
	C135.771362,119.561440 137.931427,116.872238 137.672867,115.935478 
	C133.967606,102.512039 127.617729,90.687157 115.836029,81.601082 
M66.482483,166.991425 
	C57.458492,166.991425 48.434498,166.991425 39.069832,166.991425 
	C39.069832,174.281876 38.958549,181.925659 39.190052,189.559052 
	C39.224693,190.701431 40.876175,192.774216 41.763744,192.765640 
	C57.187210,192.616699 72.782013,193.526016 87.984795,191.518570 
	C106.158966,189.118805 120.383095,178.664032 130.127884,163.031815 
	C133.973114,156.863495 137.954346,150.377655 137.857361,142.063690 
	C134.865295,141.764694 132.160172,141.240234 129.463913,141.282486 
	C125.042442,141.351761 120.618813,142.092667 116.211037,141.977676 
	C112.505104,141.880997 110.539642,142.740967 108.738808,146.479568 
	C104.869507,154.512390 98.895378,161.371796 90.102295,163.837753 
	C82.836090,165.875473 75.036789,166.012314 66.482483,166.991425 
z"/>
<path fill="#FCFBFB" opacity="1.000000" stroke="none" 
	d="
M14.975281,205.930588 
	C14.991673,204.889542 15.008065,203.848480 15.261076,202.173279 
	C15.062660,199.354462 14.627625,197.169769 14.192590,194.985092 
	C14.127592,194.323990 14.031319,193.663986 14.008008,193.001419 
	C13.990946,192.516479 14.069760,192.028152 14.160511,190.803680 
	C15.736869,191.275909 17.543417,191.278610 18.470488,192.182922 
	C24.143412,197.716537 30.772551,201.725571 37.696701,205.455490 
	C39.803253,206.590256 43.173363,208.186356 41.174519,212.174042 
	C41.019127,212.484039 43.403572,214.917862 44.633327,214.940109 
	C57.292366,215.169159 69.988037,215.673904 82.611801,214.979843 
	C99.072662,214.074783 114.234024,208.459641 127.572548,198.766541 
	C134.982788,193.381516 141.052490,186.588806 146.690170,179.144608 
	C160.729233,160.606903 162.706772,139.501923 160.904495,117.701012 
	C159.669708,102.764618 153.575714,89.135994 143.903992,77.701431 
	C130.785095,62.191406 114.249016,51.592587 94.225304,47.089485 
	C90.113739,46.164841 85.776337,45.986404 81.537376,45.935627 
	C69.709793,45.793961 57.876915,46.033386 46.051262,45.827431 
	C42.445312,45.764633 41.247360,47.036072 40.799854,50.473225 
	C40.562065,52.299622 39.131298,54.423798 37.602657,55.549019 
	C31.622305,59.951107 25.405643,64.034454 19.235004,68.173950 
	C17.866003,69.092323 16.326691,69.756828 14.606760,70.676773 
	C14.606760,53.011284 14.606760,36.194832 14.606760,19.027470 
	C28.184549,19.027470 41.151093,19.027752 54.117634,19.027370 
	C62.948204,19.027109 71.786377,18.788568 80.607872,19.071194 
	C103.846519,19.815722 124.816093,27.376701 143.452057,41.151539 
	C158.939362,52.599033 170.620041,67.549805 178.567307,84.831123 
	C182.923111,94.302803 184.921234,105.052376 186.766312,115.441719 
	C189.896027,133.064682 187.986160,150.468857 181.904205,167.351151 
	C172.601532,193.173492 156.071701,213.017639 132.406067,226.881134 
	C118.721237,234.897812 103.931602,240.159851 88.121933,240.822830 
	C64.910805,241.796204 41.653046,241.644730 18.416161,242.032761 
	C15.361532,242.083771 14.771822,240.434998 14.996136,237.236069 
	C14.990397,236.360397 14.996648,236.177750 15.296974,235.699463 
	C15.724164,228.643311 15.964341,221.882416 15.937769,215.122574 
	C15.927117,212.412994 15.329636,209.705750 14.997360,206.730637 
	C14.988734,206.286102 14.982007,206.108353 14.975281,205.930588 
z"/>
<path fill="#FBFAFA" opacity="1.000000" stroke="none" 
	d="
M115.906998,81.970894 
	C127.617729,90.687157 133.967606,102.512039 137.672867,115.935478 
	C137.931427,116.872238 135.771362,119.561440 134.643555,119.618835 
	C127.669479,119.973755 120.649857,120.085403 113.691368,119.607689 
	C112.078682,119.496964 110.060982,117.051529 109.224350,115.224846 
	C104.288445,104.447884 95.874008,97.767395 84.601456,95.371185 
	C77.922112,93.951363 70.850815,94.217369 63.947853,94.048744 
	C55.828434,93.850410 47.700466,94.002281 39.314354,94.002281 
	C39.314354,85.352295 39.314354,77.089775 39.314354,68.115753 
	C65.448479,68.807159 92.562668,63.682598 115.906998,81.970894 
z"/>
<path fill="#FBFAFA" opacity="1.000000" stroke="none" 
	d="
M66.978088,166.991425 
	C75.036789,166.012314 82.836090,165.875473 90.102295,163.837753 
	C98.895378,161.371796 104.869507,154.512390 108.738808,146.479568 
	C110.539642,142.740967 112.505104,141.880997 116.211037,141.977676 
	C120.618813,142.092667 125.042442,141.351761 129.463913,141.282486 
	C132.160172,141.240234 134.865295,141.764694 137.857361,142.063690 
	C137.954346,150.377655 133.973114,156.863495 130.127884,163.031815 
	C120.383095,178.664032 106.158966,189.118805 87.984795,191.518570 
	C72.782013,193.526016 57.187210,192.616699 41.763744,192.765640 
	C40.876175,192.774216 39.224693,190.701431 39.190052,189.559052 
	C38.958549,181.925659 39.069832,174.281876 39.069832,166.991425 
	C48.434498,166.991425 57.458492,166.991425 66.978088,166.991425 
z"/>
<path fill="#EEE8E9" opacity="1.000000" stroke="none" 
	d="
M14.999262,206.997437 
	C15.329636,209.705750 15.927117,212.412994 15.937769,215.122574 
	C15.964341,221.882416 15.724164,228.643311 15.298113,235.274567 
	C14.716705,232.771469 14.428236,230.397583 14.139766,228.023712 
	C14.084304,221.319946 14.028842,214.616196 14.271185,207.458069 
	C14.568992,207.003723 14.999262,206.997437 14.999262,206.997437 
z"/>
<path fill="#EEE8E9" opacity="1.000000" stroke="none" 
	d="
M14.105818,195.399414 
	C14.627625,197.169769 15.062660,199.354462 15.203730,201.786835 
	C14.612858,199.960938 14.315951,197.887344 14.105818,195.399414 
z"/>
<path fill="#FFFFFF" opacity="1.000000" stroke="none" 
	d="
M14.074991,228.460312 
	C14.428236,230.397583 14.716705,232.771469 15.004036,235.570221 
	C14.996648,236.177750 14.990397,236.360397 14.975355,236.816986 
	C14.647780,234.359604 14.329000,231.628265 14.074991,228.460312 
z"/>
<path fill="#FFFFFF" opacity="1.000000" stroke="none" 
	d="
M14.997361,206.730637 
	C14.999262,206.997437 14.568992,207.003723 14.354227,206.995209 
	C14.241032,206.676254 14.342599,206.365784 14.709724,205.992950 
	C14.982007,206.108353 14.988734,206.286102 14.997361,206.730637 
z"/>
</svg>